<?xml version="1.0" encoding="UTF-8"?>
<svg width="28px" height="27px" viewBox="0 0 28 27" version="1.1" xmlns="http://www.w3.org/2000/svg" xmlns:xlink="http://www.w3.org/1999/xlink">
    <!-- Generator: Sketch 3.8.3 (29802) - http://www.bohemiancoding.com/sketch -->
    <title>Combined Shape</title>
    <desc>Created with Sketch.</desc>
    <defs></defs>
    <g id="Page-1" stroke="none" stroke-width="1" fill="none" fill-rule="evenodd">
        <g id="Mobile-Portrait-Copy-3" transform="translate(-112.000000, -568.000000)" fill="#00FFFF">
            <g id="Group-3" transform="translate(35.000000, 566.000000)">
                <path d="M77,2 L104.492152,2 L104.492152,28.323884 L77,28.323884 L77,2 Z M82.8401872,9.29918274 C82.8401872,8.35632738 83.3645038,7.88490676 84.4131527,7.88490676 C85.4618016,7.88490676 85.9861182,8.35632738 85.9861182,9.29918274 C85.9861182,9.74846282 85.855039,10.0980734 85.5928768,10.348025 C85.3307146,10.5979766 84.9374771,10.7229505 84.4131527,10.7229505 C83.3645038,10.7229505 82.8401872,10.248366 82.8401872,9.29918274 Z M85.8534584,22.6541244 L82.9633712,22.6541244 L82.9633712,12.0423086 L85.8534584,12.0423086 L85.8534584,22.6541244 Z M98.6645992,22.6541244 L95.7745119,22.6541244 L95.7745119,16.4559887 C95.7745119,15.6903142 95.638695,15.116067 95.367057,14.7332297 C95.0954191,14.3503925 94.6626999,14.1589767 94.0688867,14.1589767 C93.2602899,14.1589767 92.6759612,14.4294899 92.315883,14.9705243 C91.9558047,15.5115588 91.7757683,16.4085235 91.7757683,17.6614454 L91.7757683,22.6541244 L88.8856811,22.6541244 L88.8856811,12.0423086 L91.0935182,12.0423086 L91.4820217,13.3996339 L91.6431086,13.3996339 C91.9652838,12.887075 92.4090578,12.4994976 92.9744438,12.2368902 C93.5398298,11.9742829 94.1825914,11.8429812 94.9027479,11.8429812 C96.1345945,11.8429812 97.0695205,12.1767723 97.7075539,12.8443645 C98.3455873,13.5119567 98.6645992,14.4753633 98.6645992,15.734613 L98.6645992,22.6541244 Z" id="Combined-Shape"></path>
            </g>
        </g>
    </g>
</svg>